<?xml version="1.0" encoding="UTF-8"?>
<svg width="105mm" height="105mm" version="1.1" viewBox="0 0 105 105" xmlns="http://www.w3.org/2000/svg" xmlns:cc="http://creativecommons.org/ns#" xmlns:dc="http://purl.org/dc/elements/1.1/" xmlns:rdf="http://www.w3.org/1999/02/22-rdf-syntax-ns#">
 <defs>
  <mask id="mask247" maskUnits="userSpaceOnUse">
   <g transform="translate(220 105.07)">
    <rect x="-28.54" y="-69.643" width="101" height="101" fill="#fff" stroke-width=".26303"/>
    <g transform="translate(-90.064 -81.839)">
     <g transform="matrix(.065928 0 0 .065928 104.58 42.297)">
      <path d="m65 536.5v-263.5h92v527h-92z"/>
      <path d="m94 171.4c-11.3-2.9-19.9-8.1-29.2-17.4-13.5-13.6-19.8-28.4-19.8-46.4 0.1-24.7 14.4-48.2 36.1-59.1 10.7-5.5 17-6.9 29.4-6.9 9.3 0.1 12.2 0.5 19 2.8 21.7 7.4 36.7 22.3 44.1 44.1 3.8 11 4 26.5 0.6 37-5.6 16.9-19.2 33-34.3 40.4-4.6 2.2-11.1 4.8-14.4 5.6-7.5 1.9-24.1 1.9-31.5-0.1z"/>
     </g>
     <path transform="matrix(0 -.0057149 -.0057149 0 121.78 86.501)" d="m6169 6226c-2-2-51-7-109-10-439-29-987-166-1450-363-519-221-1027-554-1389-911-82-81-102-107-120-157-60-160 18-347 181-436 59-32 69-34 158-34 86 0 100 3 147 29 29 16 92 65 140 110 395 364 836 637 1336 825 152 57 374 124 497 151 372 81 500 94 900 95 309 0 362-2 510-23 303-43 520-95 805-193 512-175 1010-472 1409-841 137-126 188-152 301-153 71 0 88 4 147 33 71 35 141 103 174 169 15 31 19 60 19 153 0 144-7 159-128 278-328 322-794 638-1252 849-504 232-1051 376-1610 423-113 9-657 14-666 6z"/>
     <path transform="matrix(0 -.0057149 -.0057149 0 121.78 86.501)" d="m6195 4939c-787-66-1561-412-2102-941-111-108-128-145-128-273 0-89 3-105 27-150 36-67 107-139 171-172 40-20 71-27 132-31 121-6 169 16 297 134 123 114 297 247 428 329 224 139 526 268 760 325 47 11 101 25 120 30s100 19 180 32c207 32 550 32 762 0 561-86 1063-325 1473-702 131-120 182-145 295-145 72 0 93 4 141 28 63 30 146 112 178 174 46 91 43 224-6 315-50 92-339 338-576 492-467 302-966 482-1522 546-126 15-499 20-630 9z"/>
     <path transform="matrix(0 -.0057149 -.0057149 0 121.78 86.501)" d="m6230 3653c-103-11-321-60-439-99-316-106-596-274-819-493-118-116-137-154-136-271 1-69 6-96 26-140 53-115 155-197 273-220 51-10 71-9 124 5 78 20 127 50 211 130 271 257 616 395 989 395 387 0 722-136 1017-412 100-93 146-113 264-113 105 0 160 24 239 103 77 78 106 145 106 252 0 118-27 171-145 283-330 315-769 520-1230 577-78 9-399 12-480 3z"/>
     <g transform="matrix(0 .0057149 .0057149 0 102.27 12.746)">
      <path d="m6169 6226c-2-2-51-7-109-10-439-29-987-166-1450-363-519-221-1027-554-1389-911-82-81-102-107-120-157-60-160 18-347 181-436 59-32 69-34 158-34 86 0 100 3 147 29 29 16 92 65 140 110 395 364 836 637 1336 825 152 57 374 124 497 151 372 81 500 94 900 95 309 0 362-2 510-23 303-43 520-95 805-193 512-175 1010-472 1409-841 137-126 188-152 301-153 71 0 88 4 147 33 71 35 141 103 174 169 15 31 19 60 19 153 0 144-7 159-128 278-328 322-794 638-1252 849-504 232-1051 376-1610 423-113 9-657 14-666 6z"/>
      <path d="m6195 4939c-787-66-1561-412-2102-941-111-108-128-145-128-273 0-89 3-105 27-150 36-67 107-139 171-172 40-20 71-27 132-31 121-6 169 16 297 134 123 114 297 247 428 329 224 139 526 268 760 325 47 11 101 25 120 30s100 19 180 32c207 32 550 32 762 0 561-86 1063-325 1473-702 131-120 182-145 295-145 72 0 93 4 141 28 63 30 146 112 178 174 46 91 43 224-6 315-50 92-339 338-576 492-467 302-966 482-1522 546-126 15-499 20-630 9z"/>
      <path d="m6230 3653c-103-11-321-60-439-99-316-106-596-274-819-493-118-116-137-154-136-271 1-69 6-96 26-140 53-115 155-197 273-220 51-10 71-9 124 5 78 20 127 50 211 130 271 257 616 395 989 395 387 0 722-136 1017-412 100-93 146-113 264-113 105 0 160 24 239 103 77 78 106 145 106 252 0 118-27 171-145 283-330 315-769 520-1230 577-78 9-399 12-480 3z"/>
     </g>
    </g>
   </g>
  </mask>
 </defs>
 <metadata>
  <rdf:RDF>
   <cc:Work rdf:about="">
    <dc:format>image/svg+xml</dc:format>
    <dc:type rdf:resource="http://purl.org/dc/dcmitype/StillImage"/>
    <dc:title/>
   </cc:Work>
  </rdf:RDF>
 </metadata>
 <g transform="translate(-43.665 -88.329)">
  <g transform="translate(-91.197 -37.265)">
   <g transform="translate(-18.521 -7.9375)">
    <circle cx="205.88" cy="186.03" r="52.5" fill="#fff" stroke-width=".25811"/>
    <circle transform="translate(-36.075 100.1)" cx="241.96" cy="85.928" r="50" fill="#023353" mask="url(#mask247)" stroke-width=".50853"/>
   </g>
  </g>
 </g>
</svg>
